<?xml version="1.0" encoding="UTF-8" standalone="no"?>
<svg
   width="16"
   height="16"
   viewBox="0 0 16 16"
   fill="none"
   version="1.1"
   id="svg1"
   sodipodi:docname="coud-notebook.svg"
   xml:space="preserve"
   inkscape:version="1.4.4 (dcaf3e7d9e, 2026-05-05)"
   xmlns:inkscape="http://www.inkscape.org/namespaces/inkscape"
   xmlns:sodipodi="http://sodipodi.sourceforge.net/DTD/sodipodi-0.dtd"
   xmlns:xlink="http://www.w3.org/1999/xlink"
   xmlns="http://www.w3.org/2000/svg"
   xmlns:svg="http://www.w3.org/2000/svg"><defs
     id="defs1"><linearGradient
       id="swatch15"
       inkscape:swatch="solid"><stop
         style="stop-color:#007fff;stop-opacity:1;"
         offset="0"
         id="stop15" /></linearGradient><linearGradient
       inkscape:collect="always"
       xlink:href="#swatch15"
       id="linearGradient15"
       x1="1107.0709"
       y1="-459.79186"
       x2="1988.0709"
       y2="-459.79186"
       gradientUnits="userSpaceOnUse"
       gradientTransform="matrix(0.96152664,0,0,0.95706633,42.611978,-33.47933)" /></defs><sodipodi:namedview
     id="namedview1"
     pagecolor="#ffffff"
     bordercolor="#000000"
     borderopacity="0.25"
     inkscape:showpageshadow="2"
     inkscape:pageopacity="0.0"
     inkscape:pagecheckerboard="0"
     inkscape:deskcolor="#d1d1d1"
     inkscape:zoom="32"
     inkscape:cx="-0.15625"
     inkscape:cy="-0.25"
     inkscape:window-width="1876"
     inkscape:window-height="1012"
     inkscape:window-x="0"
     inkscape:window-y="0"
     inkscape:window-maximized="1"
     inkscape:current-layer="svg1" /><path
     style="fill:#ff8000;stroke-width:0.880344;fill-opacity:1"
     d="M 13.285477,10.665025 H 12.72679 v 1.73399 h 0.558687 c 0.185127,0 0.335213,-0.145569 0.335213,-0.325123 v -1.083744 c 0,-0.179555 -0.150086,-0.325123 -0.335213,-0.325123 z"
     id="path10"
     sodipodi:nodetypes="sccssss" /><path
     style="fill:#ff0100;stroke-width:0.880344;fill-opacity:1"
     d="m 12.72679,8.0640394 h 0.558687 c 0.185127,0 0.335213,0.1455598 0.335213,0.3251232 v 1.0837438 c 0,0.1795634 -0.150086,0.3251232 -0.335213,0.3251232 H 12.72679 Z"
     id="path9"
     sodipodi:nodetypes="csssscc" /><path
     style="fill:#007fff;stroke-width:0.880344;fill-opacity:1"
     d="M 7.2960616,2.813303 7.2837066,2.832964 M 8.2833731,3.7791731 7.2931047,3.729064 h -1.86439 -1.8643899 c -0.370262,0 -0.6704244,0.2911283 -0.6704244,0.6502463 v 9.1034487 c 0,0.359109 0.3001624,0.650246 0.6704244,0.650246 H 10.26857 c 0.370253,0 0.670424,-0.291137 0.670424,-0.650246 l 0.06897,-5.7413796 0.475426,0.030779 0.366744,0.055428 -0.01724,5.6551721 C 11.830338,14.320705 11.132521,15 10.268568,15 H 3.5643236 C 2.70037,15 2,14.320709 2,13.482759 V 4.3793103 C 2,3.5413596 2.70037,2.862069 3.5643236,2.862069 h 1.890252 L 8.28892,2.9066515"
     id="path8"
     sodipodi:nodetypes="cccccsssssscccsssssscc" /><path
     style="fill:none;fill-opacity:1;stroke:#007fff;stroke-width:0.28;stroke-dasharray:none;stroke-opacity:1"
     d="M 8.5654981,5.8381663 7.8155293,4.6930549 4.3256402,4.7065445 C 3.955381,4.7079757 3.6402709,4.993781 3.6434971,5.3528846 l 0.011719,1.3043988 c 0.00323,0.3591036 0.3001647,0.6489586 0.6704244,0.6502463 l 4.3358928,0.01508"
     id="path1"
     sodipodi:nodetypes="ccssssc" /><g
     style="fill:#212121;fill-opacity:1"
     id="g1"
     transform="matrix(0.00553807,0,0,0.00568646,3.4771781,6.3207241)"><path
       style="fill:#007fff;fill-opacity:1;stroke:#212121;stroke-width:0.397578;stroke-dasharray:none;stroke-opacity:1"
       d="m 1283.8818,-239.31442 c -54.1569,-9.63569 -100.5893,-54.57415 -112.2188,-108.6079 -6.8039,-31.61332 -2.7468,-64.77014 11.3961,-93.14501 13.947,-27.98351 38.9627,-52.34847 67.6449,-65.88914 18.4211,-8.69621 32.9823,-11.84926 59.2432,-12.82762 l 21.7471,-0.80956 0.8161,-15.56327 c 1.6494,-31.84555 13.0841,-67.57382 29.5698,-92.48719 31.6322,-47.80329 78.4394,-80.40394 131.242,-91.40861 17.4538,-3.6376 64.6324,-3.63272 82.047,0.008 39.38,8.2332 70.1891,24.72485 99.9303,53.49091 29.8859,28.90637 49.5761,63.81063 57.669,102.22757 3.4325,16.29069 4.9464,42.43266 5.0037,86.33141 l 0.051,38.70845 39.2242,0.68332 c 42.3983,0.73886 48.225,1.5703 65.1342,9.29319 25.7876,11.77925 47.0958,36.86577 54.8539,64.58019 1.7848,6.35457 2.5678,14.3922 2.6147,26.61284 0.076,20.6421 -2.0782,30.02572 -10.9364,47.62304 -4.8631,9.6633 -8.4553,14.30182 -19.0648,24.62713 -10.5718,10.28469 -15.4158,13.8442 -25.3084,18.58419 -22.2152,10.64502 -2.4915,9.97752 -291.4834,9.86358 -203.9303,-0.0804 -261.2413,-0.48304 -269.1718,-1.89479 z"
       id="path15" /><path
       d="m 1319.1068,-167.26941 q -87.499,0 -149.5174,-60.29518 -62.0185,-60.29518 -62.0185,-147.38821 0,-74.65118 45.1918,-133.03222 45.1917,-58.38105 118.2677,-74.65118 24.0382,-88.0501 96.1527,-142.60288 72.1145,-54.55278 163.4595,-54.55278 112.4986,0 190.8631,78.00091 78.3644,78.0009 78.3644,189.97766 66.3453,7.65653 110.0948,56.94545 43.7494,49.28891 43.7494,115.32649 0,71.77997 -50.4801,122.02596 -50.4802,50.24598 -122.5947,50.24598 z m 0,-76.56531 h 461.5327 q 40.3842,0 68.2684,-27.75492 27.8843,-27.75492 27.8843,-67.95171 0,-40.19679 -27.8843,-67.95171 -27.8842,-27.75492 -68.2684,-27.75492 h -57.6916 v -76.56531 q 0,-79.4365 -56.2493,-135.42488 -56.2493,-55.98838 -136.056,-55.98838 -79.8067,0 -136.056,55.98838 -56.2493,55.98838 -56.2493,135.42488 h -19.2305 q -55.7686,0 -95.1912,39.23972 -39.4226,39.23972 -39.4226,94.74957 0,55.50984 39.4226,94.74956 39.4226,39.23972 95.1912,39.23972 z m 211.5358,-229.69592 z"
       id="path1-5"
       style="fill:url(#linearGradient15);fill-opacity:1;stroke:none;stroke-width:0.959294;stroke-opacity:1"
       inkscape:label="path1-5" /></g><ellipse
     style="fill:none;stroke:#007fff;stroke-width:0.6;stroke-dasharray:none;stroke-opacity:1"
     id="path3"
     cx="11.850134"
     cy="4.0110025"
     rx="3.218555"
     ry="3.1575975"
     inkscape:label="path3" /><rect
     style="fill:none;fill-opacity:1;stroke:#007fff;stroke-width:0.28;stroke-dasharray:none;stroke-opacity:1"
     id="rect13"
     width="3.609375"
     height="1.03125"
     x="4.265625"
     y="5.453125"
     ry="0.515625" /></svg>
